<?xml version="1.0" encoding="UTF-8"?>
<svg width="106px" height="112px" viewBox="0 0 106 112" version="1.1" xmlns="http://www.w3.org/2000/svg" xmlns:xlink="http://www.w3.org/1999/xlink">
    <!-- Generator: sketchtool 47.1 (45422) - http://www.bohemiancoding.com/sketch -->
    <title>AA368ACF-BDEC-4B4D-B653-F0159BC2273D</title>
    <desc>Created with sketchtool.</desc>
    <defs></defs>
    <g id="ver-3" stroke="none" stroke-width="1" fill="none" fill-rule="evenodd">
        <g id="neuron_web_landing" transform="translate(-130.000000, -20.000000)">
            <g id="//-HEADER">
                <g id="Group-2" transform="translate(130.000000, 20.000000)">
                    <g id="logo">
                        <polygon id="Fill-2" fill="#FFFFFF" points="0.254970404 83.2052499 4.57625291 83.2052499 11.4517552 92.005419 11.4517552 83.2052499 16.0351857 83.2052499 16.0351857 99.8546537 11.9767641 99.8546537 4.83863857 90.721326 4.83863857 99.8546537 0.254970404 99.8546537"></polygon>
                        <polygon id="Fill-3" fill="#FFFFFF" points="18.996626 83.2052499 32.4374735 83.2052499 32.4374735 87.1295121 23.5802942 87.1295121 23.5802942 89.6510512 31.6018323 89.6510512 31.6018323 93.2899856 23.5802942 93.2899856 23.5802942 95.9303915 32.556783 95.9303915 32.556783 99.8546537 18.996626 99.8546537"></polygon>
                        <path d="M34.7063964,92.5525378 L34.7063964,83.2051552 L39.409374,83.2051552 L39.409374,92.4575865 C39.409374,94.8597852 40.6271857,96.0015696 42.4893157,96.0015696 C44.3514457,96.0015696 45.5692574,94.9073793 45.5692574,92.5764533 L45.5692574,83.2051552 L50.2719973,83.2051552 L50.2719973,92.433671 C50.2719973,97.8091975 47.1922933,100.163802 42.4415444,100.163802 C37.6907955,100.163802 34.7063964,97.7613666 34.7063964,92.5525378 Z" id="Fill-4" fill="#FFFFFF"></path>
                        <path d="M60.7056534,91.19703 C62.2813933,91.19703 63.1885726,90.4357615 63.1885726,89.1751104 C63.1885726,87.8671019 62.233622,87.2007848 60.6818865,87.2007848 L57.6499538,87.2007848 L57.6499538,91.19703 L60.7056534,91.19703 Z M53.0185143,83.2052499 L60.9205054,83.2052499 C63.4749628,83.2052499 65.2417879,83.871567 66.3638193,84.9889624 C67.3425368,85.964049 67.8437789,87.2486156 67.8437789,88.9373767 C67.8437789,91.4823577 66.4833664,93.1713556 64.4061466,94.0514909 L68.39303,99.8546537 L63.0452587,99.8546537 L59.6791646,94.812049 L57.6499538,94.812049 L57.6499538,99.8546537 L53.0185143,99.8546537 L53.0185143,83.2052499 Z" id="Fill-6" fill="#FFFFFF"></path>
                        <path d="M82.8853691,91.5300228 C82.8853691,89.1278241 81.1427861,87.0346317 78.5883287,87.0346317 C76.0571628,87.0346317 74.3623511,89.0799932 74.3623511,91.5300228 C74.3623511,93.9324584 76.1049341,96.025414 78.6361,96.025414 C81.1905574,96.025414 82.8853691,93.9798156 82.8853691,91.5300228 M69.6118399,91.5300228 C69.6118399,86.7490672 73.4796516,82.8723992 78.6361,82.8723992 C83.7927861,82.8723992 87.6121135,86.7014732 87.6121135,91.5300228 C87.6121135,96.3107416 83.7450148,100.187647 78.5883287,100.187647 C73.4318803,100.187647 69.6118399,96.3583357 69.6118399,91.5300228" id="Fill-8" fill="#FFFFFF"></path>
                        <polygon id="Fill-10" fill="#FFFFFF" points="90.0251821 83.2052499 94.3459892 83.2052499 101.221016 92.005419 101.221016 83.2052499 105.805397 83.2052499 105.805397 99.8546537 101.746738 99.8546537 94.6081372 90.721326 94.6081372 99.8546537 90.0251821 99.8546537"></polygon>
                        <polygon id="Fill-12" fill="#FFFFFF" points="3.46289641 104.06583 0.162636323 104.06583 0.162636323 103.115369 8.19558251 103.115369 8.19558251 104.06583 4.87939865 104.06583 4.87939865 111.773466 3.46289641 111.773466"></polygon>
                        <polygon id="Fill-14" fill="#FFFFFF" points="15.0214834 107.714283 10.8035865 107.714283 10.8035865 110.835603 15.5041874 110.835603 15.5041874 111.773514 9.40300807 111.773514 9.40300807 103.115416 15.2629543 103.115416 15.2629543 104.053328 10.8035865 104.053328 10.8035865 106.789159 15.0214834 106.789159"></polygon>
                        <path d="M24.9053655,111.490601 C24.3903386,111.695895 23.3602848,111.901663 22.0405135,111.901663 C18.9814865,111.901663 16.6796704,110.360419 16.6796704,107.521586 C16.6796704,104.811092 18.9814865,102.974102 22.345917,102.974102 C23.6982489,102.974102 24.5517152,103.205443 24.9215269,103.359591 L24.5835628,104.271929 C24.0523744,104.065925 23.2958767,103.911777 22.3944013,103.911777 C19.8508767,103.911777 18.1605807,105.209603 18.1605807,107.48299 C18.1605807,109.602229 19.6899753,110.963988 22.3299933,110.963988 C23.1829843,110.963988 24.0523744,110.822627 24.6161233,110.604073 L24.9053655,111.490601 Z" id="Fill-16" fill="#FFFFFF"></path>
                        <polygon id="Fill-18" fill="#FFFFFF" points="28.060743 103.11544 28.060743 106.738036 33.3086937 106.738036 33.3086937 103.11544 34.7254336 103.11544 34.7254336 111.773301 33.3086937 111.773301 33.3086937 107.714307 28.060743 107.714307 28.060743 111.773301 26.6601646 111.773301 26.6601646 103.11544"></polygon>
                        <path d="M37.1567789,111.773395 L37.1567789,103.115535 L38.6856982,103.115535 L42.1630211,107.495374 C42.9680031,108.510478 43.5959224,109.422342 44.1109493,110.308634 L44.1430345,110.296321 C44.0142184,109.139619 43.9821332,108.08663 43.9821332,106.737894 L43.9821332,103.115535 L45.3019045,103.115535 L45.3019045,111.773395 L43.8854022,111.773395 L40.4404022,107.380296 C39.6841422,106.416575 38.9594919,105.427755 38.4123798,104.49008 L38.3638955,104.50263 C38.444465,105.594452 38.4765502,106.635129 38.4765502,108.073844 L38.4765502,111.773395 L37.1567789,111.773395 Z" id="Fill-20" fill="#FFFFFF"></path>
                        <path d="M48.6024498,107.495303 C48.6024498,109.345316 49.857813,111.002584 52.0633735,111.002584 C54.2850955,111.002584 55.5402211,109.371362 55.5402211,107.405798 C55.5402211,105.684597 54.413674,103.885967 52.079535,103.885967 C49.7610821,103.885967 48.6024498,105.594618 48.6024498,107.495303 M57.0213691,107.354415 C57.0213691,110.334136 54.7514004,111.914449 51.982804,111.914449 C49.1174767,111.914449 47.105378,110.142102 47.105378,107.521586 C47.105378,104.772259 49.2462928,102.974102 52.1437054,102.974102 C55.1057637,102.974102 57.0213691,104.785519 57.0213691,107.354415" id="Fill-22" fill="#FFFFFF"></path>
                        <polygon id="Fill-24" fill="#FFFFFF" points="58.8411942 103.11544 60.241535 103.11544 60.241535 110.835626 64.8774901 110.835626 64.8774901 111.773301 58.8411942 111.773301"></polygon>
                        <path d="M67.2923413,107.495303 C67.2923413,109.345316 68.5479422,111.002584 70.753265,111.002584 C72.974987,111.002584 74.2301126,109.371362 74.2301126,107.405798 C74.2301126,105.684597 73.1033278,103.885967 70.7691888,103.885967 C68.4514489,103.885967 67.2923413,105.594618 67.2923413,107.495303 M75.7114982,107.354415 C75.7114982,110.334136 73.4412919,111.914449 70.6729332,111.914449 C67.8076058,111.914449 65.7950318,110.142102 65.7950318,107.521586 C65.7950318,104.772259 67.9361843,102.974102 70.8338345,102.974102 C73.7958928,102.974102 75.7114982,104.785519 75.7114982,107.354415" id="Fill-26" fill="#FFFFFF"></path>
                        <path d="M85.7896265,111.387481 C85.1609942,111.567675 83.9217924,111.863422 82.4572812,111.863422 C80.8149942,111.863422 79.4629,111.529316 78.4005233,110.71998 C77.4669628,110.000386 76.8872901,108.844394 76.8872901,107.495422 C76.9029762,104.913975 79.1246982,103.02584 82.7631601,103.02584 C84.0185233,103.02584 85.0005682,103.243684 85.4673484,103.423641 L85.1293843,104.335743 C84.5492363,104.130449 83.8255368,103.963278 82.7305996,103.963278 C80.0903439,103.963278 78.3679628,105.273654 78.3679628,107.444276 C78.3679628,109.640944 80.0259359,110.938297 82.5537744,110.938297 C83.4716489,110.938297 84.0990928,110.835532 84.4211332,110.706956 L84.4211332,108.125274 L82.215335,108.125274 L82.215335,107.225959 L85.7896265,107.225959 L85.7896265,111.387481 Z" id="Fill-28" fill="#FFFFFF"></path>
                        <polygon id="Fill-30" fill="#FFFFFF" points="87.930565 111.773395 89.3306682 111.773395 89.3306682 103.115535 87.930565 103.115535"></polygon>
                        <polygon id="Fill-32" fill="#FFFFFF" points="97.3959135 107.714283 93.1784919 107.714283 93.1784919 110.835603 97.8790928 110.835603 97.8790928 111.773514 91.7779135 111.773514 91.7779135 103.115416 97.6378596 103.115416 97.6378596 104.053328 93.1784919 104.053328 93.1784919 106.789159 97.3959135 106.789159"></polygon>
                        <path d="M99.5052184,110.411423 C100.132662,110.719956 101.050299,110.976633 102.015945,110.976633 C103.448846,110.976633 104.286389,110.373064 104.286389,109.499795 C104.286389,108.689986 103.706954,108.227778 102.241967,107.778121 C100.470864,107.277318 99.3764022,106.545174 99.3764022,105.325013 C99.3764022,103.976277 100.776981,102.974197 102.885335,102.974197 C103.996196,102.974197 104.801653,103.179728 105.283644,103.398045 L104.897909,104.310146 C104.543783,104.156235 103.818896,103.899085 102.837564,103.899085 C101.356178,103.899085 100.792904,104.605419 100.792904,105.196438 C100.792904,106.005537 101.453147,106.404049 102.949981,106.866019 C104.785492,107.431702 105.718577,108.1378 105.718577,109.40958 C105.718577,110.745529 104.479613,111.901757 101.919689,111.901757 C100.873712,111.901757 99.7307655,111.657867 99.1510928,111.349334 L99.5052184,110.411423 Z" id="Fill-33" fill="#FFFFFF"></path>
                        <polygon id="Fill-34" fill="#FFFFFF" points="52.2613274 66.9845243 53.5204933 66.9845243 53.5204933 3.03228753 52.2613274 3.03228753"></polygon>
                        <path d="M47.3193982,30.2208203 C47.3193982,31.290148 46.4502457,32.1560761 45.377174,32.1560761 C44.3048152,32.1560761 43.4344744,31.290148 43.4344744,30.2208203 C43.4344744,29.1526765 44.3048152,28.2862748 45.377174,28.2862748 C46.4502457,28.2862748 47.3193982,29.1526765 47.3193982,30.2208203" id="Fill-35" fill="#FFFFFF"></path>
                        <path d="M34.2793305,30.0312017 C34.2793305,31.1005294 33.410178,31.9666943 32.3371063,31.9666943 C31.2647475,31.9666943 30.3946444,31.1005294 30.3946444,30.0312017 C30.3946444,28.9628211 31.2647475,28.0966562 32.3371063,28.0966562 C33.410178,28.0966562 34.2793305,28.9628211 34.2793305,30.0312017" id="Fill-36" fill="#FFFFFF"></path>
                        <path d="M29.7844076,13.5286529 C29.7844076,14.5982173 28.9152552,15.4641455 27.8424211,15.4641455 C26.7700623,15.4641455 25.8999592,14.5982173 25.8999592,13.5286529 C25.8999592,12.4605091 26.7700623,11.5941074 27.8424211,11.5941074 C28.9152552,11.5941074 29.7844076,12.4605091 29.7844076,13.5286529" id="Fill-37" fill="#FFFFFF"></path>
                        <path d="M50.0473771,22.6211112 C50.0473771,23.6904389 49.1782247,24.556367 48.1051529,24.556367 C47.0327942,24.556367 46.1624534,23.6904389 46.1624534,22.6211112 C46.1624534,21.5529674 47.0327942,20.6865658 48.1051529,20.6865658 C49.1782247,20.6865658 50.0473771,21.5529674 50.0473771,22.6211112" id="Fill-38" fill="#FFFFFF"></path>
                        <path d="M48.7834816,2.15087357 C48.7834816,3.22020127 47.9140915,4.08612939 46.8412574,4.08612939 C45.7688987,4.08612939 44.8987955,3.22020127 44.8987955,2.15087357 C44.8987955,1.08272981 45.7688987,0.216091332 46.8412574,0.216091332 C47.9140915,0.216091332 48.7834816,1.08272981 48.7834816,2.15087357" id="Fill-39" fill="#FFFFFF"></path>
                        <path d="M36.7940022,6.3919797 C36.7940022,7.4613074 35.9246121,8.32723552 34.8513027,8.32723552 C33.7794193,8.32723552 32.9088408,7.4613074 32.9088408,6.3919797 C32.9088408,5.32383594 33.7794193,4.45719746 34.8513027,4.45719746 C35.9246121,4.45719746 36.7940022,5.32383594 36.7940022,6.3919797" id="Fill-40" fill="#FFFFFF"></path>
                        <path d="M45.6882341,12.4030884 C45.6882341,13.4724161 44.8188439,14.3383442 43.7457722,14.3383442 C42.6736511,14.3383442 41.8033103,13.4724161 41.8033103,12.4030884 C41.8033103,11.3347078 42.6736511,10.4683061 43.7457722,10.4683061 C44.8188439,10.4683061 45.6882341,11.3347078 45.6882341,12.4030884" id="Fill-41" fill="#FFFFFF"></path>
                        <path d="M26.1151915,20.7517767 C26.1151915,21.8211044 25.246039,22.6870326 24.1727296,22.6870326 C23.1006085,22.6870326 22.2302677,21.8211044 22.2302677,20.7517767 C22.2302677,19.683633 23.1006085,18.8169945 24.1727296,18.8169945 C25.246039,18.8169945 26.1151915,19.683633 26.1151915,20.7517767" id="Fill-42" fill="#FFFFFF"></path>
                        <path d="M35.0815794,38.4145793 C35.0815794,39.483907 34.2124269,40.3498351 33.1391175,40.3498351 C32.0672341,40.3498351 31.1966556,39.483907 31.1966556,38.4145793 C31.1966556,37.3461987 32.0672341,36.4800338 33.1391175,36.4800338 C34.2124269,36.4800338 35.0815794,37.3461987 35.0815794,38.4145793" id="Fill-43" fill="#FFFFFF"></path>
                        <path d="M26.8873753,37.8971772 C26.8873753,38.9665049 26.0179852,39.8326698 24.9451511,39.8326698 C23.8727924,39.8326698 23.0026892,38.9665049 23.0026892,37.8971772 C23.0026892,36.8290334 23.8727924,35.9626317 24.9451511,35.9626317 C26.0179852,35.9626317 26.8873753,36.8290334 26.8873753,37.8971772" id="Fill-44" fill="#FFFFFF"></path>
                        <path d="M21.8932067,29.7525514 C21.8932067,30.8218791 21.0240543,31.6878072 19.9509825,31.6878072 C18.8786238,31.6878072 18.0085206,30.8218791 18.0085206,29.7525514 C18.0085206,28.6841708 18.8786238,27.8177691 19.9509825,27.8177691 C21.0240543,27.8177691 21.8932067,28.6841708 21.8932067,29.7525514" id="Fill-45" fill="#FFFFFF"></path>
                        <path d="M50.0865924,39.3320085 C50.0865924,40.4013362 49.2172022,41.2672643 48.1441305,41.2672643 C47.0720094,41.2672643 46.2016686,40.4013362 46.2016686,39.3320085 C46.2016686,38.2638647 47.0720094,37.3972262 48.1441305,37.3972262 C49.2172022,37.3972262 50.0865924,38.2638647 50.0865924,39.3320085" id="Fill-46" fill="#FFFFFF"></path>
                        <path d="M43.3013327,47.4700516 C43.3013327,48.5393793 42.4321803,49.4053074 41.3593462,49.4053074 C40.2869874,49.4053074 39.4168843,48.5393793 39.4168843,47.4700516 C39.4168843,46.401671 40.2869874,45.5352693 41.3593462,45.5352693 C42.4321803,45.5352693 43.3013327,46.401671 43.3013327,47.4700516" id="Fill-47" fill="#FFFFFF"></path>
                        <path d="M50.0865924,53.6038156 C50.0865924,54.6733801 49.2172022,55.5393082 48.1441305,55.5393082 C47.0720094,55.5393082 46.2016686,54.6733801 46.2016686,53.6038156 C46.2016686,52.5356719 47.0720094,51.6692702 48.1441305,51.6692702 C49.2172022,51.6692702 50.0865924,52.5356719 50.0865924,53.6038156" id="Fill-48" fill="#FFFFFF"></path>
                        <path d="M38.5379874,53.3159307 C38.5379874,54.3852584 37.668835,55.2511865 36.5955256,55.2511865 C35.5234045,55.2511865 34.6530637,54.3852584 34.6530637,53.3159307 C34.6530637,52.2475501 35.5234045,51.3811484 36.5955256,51.3811484 C37.668835,51.3811484 38.5379874,52.2475501 38.5379874,53.3159307" id="Fill-49" fill="#FFFFFF"></path>
                        <path d="M26.6079251,60.5110901 C26.6079251,61.5806545 25.7387726,62.4468195 24.6654632,62.4468195 C23.5933422,62.4468195 22.7230013,61.5806545 22.7230013,60.5110901 C22.7230013,59.4431831 23.5933422,58.5767814 24.6654632,58.5767814 C25.7387726,58.5767814 26.6079251,59.4431831 26.6079251,60.5110901" id="Fill-50" fill="#FFFFFF"></path>
                        <path d="M35.749213,46.1095476 C35.749213,47.1788753 34.8800605,48.0450402 33.8067511,48.0450402 C32.73463,48.0450402 31.8642892,47.1788753 31.8642892,46.1095476 C31.8642892,45.041167 32.73463,44.1750021 33.8067511,44.1750021 C34.8800605,44.1750021 35.749213,45.041167 35.749213,46.1095476" id="Fill-51" fill="#FFFFFF"></path>
                        <path d="M22.2102561,47.9470816 C22.2102561,49.0164093 21.3408659,49.8823374 20.2682695,49.8823374 C19.1956731,49.8823374 18.3258076,49.0164093 18.3258076,47.9470816 C18.3258076,46.8789378 19.1956731,46.0125362 20.2682695,46.0125362 C21.3408659,46.0125362 22.2102561,46.8789378 22.2102561,47.9470816" id="Fill-52" fill="#FFFFFF"></path>
                        <path d="M39.4077816,60.5039391 C39.4077816,61.5732668 38.5386291,62.4391949 37.4655574,62.4391949 C36.3931987,62.4391949 35.5230955,61.5732668 35.5230955,60.5039391 C35.5230955,59.4355586 36.3931987,58.5693937 37.4655574,58.5693937 C38.5386291,58.5693937 39.4077816,59.4355586 39.4077816,60.5039391" id="Fill-53" fill="#FFFFFF"></path>
                        <path d="M36.5955493,70.0504355 C36.5955493,71.1197632 35.7263969,71.9856913 34.6530874,71.9856913 C33.5809664,71.9856913 32.7106256,71.1197632 32.7106256,70.0504355 C32.7106256,68.9822918 33.5809664,68.1158901 34.6530874,68.1158901 C35.7263969,68.1158901 36.5955493,68.9822918 36.5955493,70.0504355" id="Fill-54" fill="#FFFFFF"></path>
                        <path d="M50.0356363,68.543337 C50.0356363,69.6131383 49.1662462,70.4788296 48.0931744,70.4788296 C47.0210534,70.4788296 46.1507126,69.6131383 46.1507126,68.543337 C46.1507126,67.4751932 47.0210534,66.6087915 48.0931744,66.6087915 C49.1662462,66.6087915 50.0356363,67.4751932 50.0356363,68.543337" id="Fill-55" fill="#FFFFFF"></path>
                        <polygon id="Fill-56" fill="#FFFFFF" points="25.1104256 61.0450199 25.0464928 60.2366309 29.418161 59.8909226 36.5890848 53.1152778 48.8541879 53.1152778 48.8541879 53.9262715 36.9139771 53.9262715 29.7696722 60.6763433"></polygon>
                        <polygon id="Fill-57" fill="#FFFFFF" points="38.9491534 25.8392288 38.2347229 25.502992 32.6145839 22.6601336 27.0636063 22.8445903 23.4579426 20.1783746 23.9427857 19.5274486 27.3205256 22.0245987 32.7964 21.8427467 39.4009605 25.1833302"></polygon>
                        <polygon id="Fill-58" fill="#FFFFFF" points="32.7964713 21.8427704 31.5396821 15.5440135 28.0927807 13.7359121 28.4720991 13.018449 32.2579152 15.0043772 33.9909915 22.6215611"></polygon>
                        <polyline id="Fill-59" fill="#FFFFFF" points="49.9807587 22.4436397 38.5560502 25.9947264 38.3288395 25.2159357 47.1304045 22.425644"></polyline>
                        <polygon id="Fill-60" fill="#FFFFFF" points="60.7485762 9.18797801 55.1189305 4.76788499 55.1037197 0.19932685 63.309213 0.189618605 72.5930067 7.59985116 72.108639 8.2519611 63.0351816 1.12397801 55.9800022 1.10408795 55.9800022 4.41128457 61.2524327 8.55102241"></polygon>
                        <path d="M55.5259135,24.7958765 L55.5259135,19.5351915 L56.3401646,19.5351915 L56.3401646,23.4362486 C57.4488865,22.8326799 59.7946713,21.5369844 60.7541377,20.8633268 L61.223057,21.526329 C59.9113664,22.4471915 56.2793215,24.392866 56.1255502,24.4752677 L55.5259135,24.7958765 Z" id="Fill-61" fill="#FFFFFF"></path>
                        <polygon id="Fill-62" fill="#FFFFFF" points="64.3904368 63.092986 55.5258897 56.2813497 55.5258897 28.5098486 67.2472081 20.2396076 67.9483291 20.9376541 56.3401408 28.971819 56.3401408 55.8828381 64.8871632 62.4510579"></polygon>
                        <polygon id="Fill-63" fill="#FFFFFF" points="58.6743274 67.8866334 55.5185695 65.0092042 55.5259372 61.0060922 58.1001211 58.4866841 58.7387354 58.9983797 56.3214126 61.3610351 56.3523094 64.670126 59.2240538 67.2880372"></polygon>
                        <polyline id="Fill-64" fill="#FFFFFF" points="73.0794897 63.5966072 73.0794897 70.1991611 69.9553417 72.5071188 63.1929695 72.5071188 63.1929695 71.6963619 69.6870143 71.6963619 72.2654762 69.7909412 72.2654762 63.5966072"></polyline>
                        <polygon id="Fill-65" fill="#FFFFFF" points="73.3185363 51.8622748 63.9589265 43.0545285 63.9955274 36.6065962 65.3255184 33.8191459 76.0621776 33.8191459 76.0621776 39.1731247 75.2481641 39.1731247 75.2481641 34.6303763 65.8398323 34.6303763 64.8095408 36.7898689 64.8095408 42.6358901 73.9131821 51.2032981"></polygon>
                        <polygon id="Fill-66" fill="#FFFFFF" points="75.8618709 67.6449928 75.351122 67.0134833 82.0982834 61.5948617 82.0982834 46.642033 79.0720547 42.2612465 79.0658753 27.5944558 74.2029471 27.5944558 70.641252 30.6172719 70.1136287 30.0002063 73.9030099 26.7836989 79.8798888 26.7836989 79.8865435 42.0095425 82.9122969 46.3900922 82.9122969 61.982718"></polygon>
                        <polygon id="Fill-67" fill="#FFFFFF" points="73.4176439 60.0839983 63.9693839 50.6165649 60.9947291 50.6165649 60.9947291 55.7742478 60.1809534 55.7742478 60.1809534 49.8053345 64.2916619 49.8053345 73.9749758 59.4925057"></polygon>
                        <polygon id="Fill-68" fill="#FFFFFF" points="85.5377933 56.0648795 84.7237798 56.0648795 84.7237798 49.2608203 87.0750309 46.711814 87.0750309 43.9887696 85.700596 42.618723 85.700596 36.2671628 86.5143717 36.2671628 86.5143717 42.2829598 87.8890444 43.6530063 87.8890444 47.1228753 85.5377933 49.6721184"></polygon>
                        <polygon id="Fill-69" fill="#FFFFFF" points="82.950609 37.0472795 82.4469901 36.4107975 85.3268152 34.1492499 85.3268152 28.4841336 82.5047435 28.2295882 76.8273265 22.0399899 76.8273265 15.7215797 77.6413399 15.7215797 77.6413399 21.7253006 82.8928556 27.4500871 86.1410664 27.7434655 86.1410664 34.5425522"></polygon>
                        <polygon id="Fill-70" fill="#FFFFFF" points="61.0201359 42.8400947 60.2058848 42.8400947 60.2058848 30.7533294 71.271239 23.5133463 71.271239 17.781693 66.3042121 13.9422004 66.3042121 9.20055137 58.1866561 3.20606512 58.6964543 2.57360846 67.1182256 8.81127442 67.1182256 13.5453463 72.0852525 17.3846021 72.0852525 23.9511645 61.0201359 31.1909108"></polygon>
                        <polygon id="Fill-71" fill="#FFFFFF" points="84.2582354 26.4270275 83.4439843 26.4270275 83.4439843 22.1490063 79.366787 18.9644651 79.366787 15.5095137 80.1812758 15.5095137 80.1812758 18.5695053 84.2582354 21.7540465"></polygon>
                        <polygon id="Fill-72" fill="#FFFFFF" points="77.7780704 14.5814529 73.0499 14.5814529 73.0499 9.13536406 73.8639135 9.13536406 73.8639135 13.7704592 77.7780704 13.7704592"></polygon>
                        <polyline id="Stroke-73" stroke="#FFFFFF" stroke-width="0.713049508" points="33.139165 38.4149345 45.4201919 30.2211755 48.2691202 39.3322452 41.3589184 47.4703594"></polyline>
                        <polyline id="Stroke-74" stroke="#FFFFFF" stroke-width="0.713049508" points="34.653135 70.0506486 37.4654623 60.41486 48.0930318 68.5439763"></polyline>
                        <polyline id="Stroke-75" stroke="#FFFFFF" stroke-width="0.713049508" points="36.5955493 53.6044076 33.8067511 46.1659975 20.268222 48.0448981"></polyline>
                        <path d="M19.9507686,29.5661767 L25.0466117,37.8977455" id="Stroke-76" stroke="#FFFFFF" stroke-width="0.713049508"></path>
                        <path d="M39.1792637,25.3761691 L33.139165,29.4133784" id="Stroke-77" stroke="#FFFFFF" stroke-width="0.713049508"></path>
                        <polyline id="Stroke-78" stroke="#FFFFFF" stroke-width="0.713049508" points="34.8513502 6.39233488 43.7456058 12.4033962 46.840996 2.15125243"></polyline>
                        <path d="M43.8116063,12.1850317 L48.1050816,22.7068753" id="Stroke-79" stroke="#FFFFFF" stroke-width="0.713049508"></path>
                        <path d="M60.4626377,13.3511577 C59.4256915,13.3511577 58.5822072,14.1915129 58.5822072,15.2246123 C58.5822072,16.2574748 59.4256915,17.09783 60.4626377,17.09783 C61.4991085,17.09783 62.3425928,16.2574748 62.3425928,15.2246123 C62.3425928,14.1915129 61.4991085,13.3511577 60.4626377,13.3511577 M60.4626377,18.3800288 C58.7160143,18.3800288 57.2949964,16.9645192 57.2949964,15.2246123 C57.2949964,13.4844685 58.7160143,12.0687222 60.4626377,12.0687222 C62.2090233,12.0687222 63.6298036,13.4844685 63.6298036,15.2246123 C63.6298036,16.9645192 62.2090233,18.3800288 60.4626377,18.3800288" id="Fill-80" fill="#FFFFFF"></path>
                        <path d="M70.1620179,37.6225996 C69.1250717,37.6225996 68.2815874,38.462718 68.2815874,39.4960541 C68.2815874,40.5289167 69.1250717,41.3692719 70.1620179,41.3692719 C71.1984888,41.3692719 72.0419731,40.5289167 72.0419731,39.4960541 C72.0419731,38.462718 71.1984888,37.6225996 70.1620179,37.6225996 M70.1620179,42.6514706 C68.415157,42.6514706 66.9943767,41.2357243 66.9943767,39.4960541 C66.9943767,37.7556736 68.415157,36.3401641 70.1620179,36.3401641 C71.9084036,36.3401641 73.3291839,37.7556736 73.3291839,39.4960541 C73.3291839,41.2357243 71.9084036,42.6514706 70.1620179,42.6514706" id="Fill-81" fill="#FFFFFF"></path>
                        <path d="M77.7724852,55.3545201 C76.735539,55.3545201 75.8920547,56.1948753 75.8920547,57.2279746 C75.8920547,58.261074 76.735539,59.1009556 77.7724852,59.1009556 C78.8089561,59.1009556 79.6524404,58.261074 79.6524404,57.2279746 C79.6524404,56.1948753 78.8089561,55.3545201 77.7724852,55.3545201 M77.7724852,60.3838647 C76.0258619,60.3838647 74.6048439,58.9681184 74.6048439,57.2279746 C74.6048439,55.4878309 76.0258619,54.0720846 77.7724852,54.0720846 C79.5188709,54.0720846 80.9396511,55.4878309 80.9396511,57.2279746 C80.9396511,58.9681184 79.5188709,60.3838647 77.7724852,60.3838647" id="Fill-82" fill="#FFFFFF"></path>
                        <path d="M67.4759399,65.5715958 C66.4389937,65.5715958 65.5955094,66.411951 65.5955094,67.4452871 C65.5955094,68.4779129 66.4389937,69.3182681 67.4759399,69.3182681 C68.5124108,69.3182681 69.3558951,68.4779129 69.3558951,67.4452871 C69.3558951,66.411951 68.5124108,65.5715958 67.4759399,65.5715958 M67.4759399,70.6004668 C65.7293166,70.6004668 64.3082987,69.1849573 64.3082987,67.4452871 C64.3082987,65.7049066 65.7293166,64.2891603 67.4759399,64.2891603 C69.2223256,64.2891603 70.6433435,65.7049066 70.6433435,67.4452871 C70.6433435,69.1849573 69.2223256,70.6004668 67.4759399,70.6004668" id="Fill-83" fill="#FFFFFF"></path>
                    </g>
                </g>
            </g>
        </g>
    </g>
</svg>